<?xml version="1.0" encoding="UTF-8" standalone="no"?>
<svg
   xmlns:dc="http://purl.org/dc/elements/1.1/"
   xmlns:cc="http://creativecommons.org/ns#"
   xmlns:rdf="http://www.w3.org/1999/02/22-rdf-syntax-ns#"
   xmlns:svg="http://www.w3.org/2000/svg"
   xmlns="http://www.w3.org/2000/svg"
   viewBox="0 0 1440 326.66666"
   height="326.66666"
   width="1440"
   xml:space="preserve"
   id="svg2"
   version="1.1"><metadata
     id="metadata8"><rdf:RDF><cc:Work
         rdf:about=""><dc:format>image/svg+xml</dc:format><dc:type
           rdf:resource="http://purl.org/dc/dcmitype/StillImage" /></cc:Work></rdf:RDF></metadata><defs
     id="defs6"><clipPath
       id="clipPath24"
       clipPathUnits="userSpaceOnUse"><path
         id="path22"
         d="M 0,245 H 1080 V 0 H 0 Z" /></clipPath></defs><g
     transform="matrix(1.3333333,0,0,-1.3333333,0,326.66667)"
     id="g10"><path
       id="path12"
       style="fill:#1b2328;fill-opacity:1;fill-rule:nonzero;stroke:none"
       d="M 0,0 H 1080 V 245 H 0 Z" /><g
       transform="translate(743.006,179.9345)"
       id="g14"><path
         id="path16"
         style="fill:#d8d8d8;fill-opacity:1;fill-rule:nonzero;stroke:none"
         d="m 0,0 v -91.302 h -25.205 v 35.738 h -72.398 v -35.738 h -25.204 V 0 h 25.204 v -35.608 h 72.398 V 0 Z" /></g><g
       id="g18"><g
         clip-path="url(#clipPath24)"
         id="g20"><g
           transform="translate(839.8371,88.6325)"
           id="g26"><path
             id="path28"
             style="fill:#d8d8d8;fill-opacity:1;fill-rule:nonzero;stroke:none"
             d="m 0,0 h -15.688 c -13.374,0 -23.749,1.371 -31.12,4.115 -7.374,2.743 -12.538,6.986 -15.496,12.731 -2.958,5.743 -4.436,13.802 -4.436,24.176 v 50.28 h 25.719 V 42.179 c 0,-8.831 2.077,-14.833 6.236,-18.004 4.158,-3.173 12.281,-4.757 24.369,-4.757 h 5.272 c 12.002,0 20.081,1.584 24.241,4.757 4.157,3.171 6.236,9.173 6.236,18.004 V 91.302 H 50.924 V 41.022 C 50.924,30.734 49.445,22.697 46.488,16.91 43.53,11.124 38.386,6.858 31.056,4.115 23.727,1.371 13.374,0 0,0" /></g><g
           transform="translate(996.2086,126.1965)"
           id="g30"><path
             id="path32"
             style="fill:#d8d8d8;fill-opacity:1;fill-rule:nonzero;stroke:none"
             d="M 0,0 H -50.023 V -18.259 H 0 c 7.543,0 12.623,0.585 15.239,1.76 2.614,1.173 3.921,3.541 3.921,7.108 v 0.521 c 0,3.653 -1.307,6.044 -3.921,7.175 C 12.623,-0.567 7.543,0 0,0 M 0.129,34.434 H -50.023 V 18.261 H 0.772 c 6,0 10.137,0.542 12.41,1.629 2.27,1.088 3.407,3.109 3.407,6.066 v 0.522 c 0,3.043 -1.157,5.13 -3.472,6.261 -2.315,1.129 -6.645,1.695 -12.988,1.695 m 44.237,-45.13 v -1.956 c 0,-9.218 -2.894,-15.674 -8.68,-19.368 -5.788,-3.698 -15.84,-5.544 -30.157,-5.544 H -75.228 V 53.738 H 2.829 c 14.231,0 24.283,-1.587 30.155,-4.761 5.871,-3.174 8.81,-8.892 8.81,-17.152 v -1.303 c 0,-6.609 -1.416,-11.524 -4.245,-14.74 -2.829,-3.218 -6.987,-5.217 -12.473,-6 V 9.131 C 31.249,8.609 35.985,6.825 39.285,3.783 42.586,0.737 44.28,-4.088 44.366,-10.696" /></g><g
           transform="translate(367.0985,38.7829)"
           id="g34"><path
             id="path36"
             style="fill:#4f5d66;fill-opacity:1;fill-rule:nonzero;stroke:none"
             d="m 0,0 h -114.235 l 20.66,72.848 h 72.915 z" /></g><g
           transform="translate(580.5197,38.7829)"
           id="g38"><path
             id="path40"
             style="fill:#4f5d66;fill-opacity:1;fill-rule:nonzero;stroke:none"
             d="m 0,0 h -109.769 c -9.049,0 -17.003,4.819 -21.384,12.049 -0.203,0.353 -90.947,155.385 -90.947,155.385 h 30.855 z" /></g><g
           transform="translate(337.8615,141.8285)"
           id="g42"><path
             id="path44"
             style="fill:#4f5d66;fill-opacity:1;fill-rule:nonzero;stroke:none"
             d="m 0,0 h -55.761 l 18.267,64.389 h 19.227 z" /></g><g
           transform="translate(261.5253,206.2171)"
           id="g46"><path
             id="path48"
             style="fill:#4f5d66;fill-opacity:1;fill-rule:nonzero;stroke:none"
             d="m 0,0 c 0,0 -90.778,-155.133 -91.031,-155.554 -4.415,-7.128 -12.301,-11.88 -21.299,-11.88 H -222.1 L -30.838,0 Z" /></g></g></g></g></svg>