<?xml version="1.0" encoding="UTF-8" standalone="no"?>
<svg
   xmlns:dc="http://purl.org/dc/elements/1.1/"
   xmlns:cc="http://creativecommons.org/ns#"
   xmlns:rdf="http://www.w3.org/1999/02/22-rdf-syntax-ns#"
   xmlns:svg="http://www.w3.org/2000/svg"
   xmlns="http://www.w3.org/2000/svg"
   viewBox="0 0 1440 326.66666"
   height="326.66666"
   width="1440"
   xml:space="preserve"
   id="svg2"
   version="1.1"><metadata
     id="metadata8"><rdf:RDF><cc:Work
         rdf:about=""><dc:format>image/svg+xml</dc:format><dc:type
           rdf:resource="http://purl.org/dc/dcmitype/StillImage" /></cc:Work></rdf:RDF></metadata><defs
     id="defs6"><clipPath
       id="clipPath24"
       clipPathUnits="userSpaceOnUse"><path
         id="path22"
         d="M 0,245 H 1080 V 0 H 0 Z" /></clipPath></defs><g
     transform="matrix(1.3333333,0,0,-1.3333333,0,326.66667)"
     id="g10"><path
       id="path12"
       style="fill:#1b2328;fill-opacity:1;fill-rule:nonzero;stroke:none"
       d="M 0,0 H 1080 V 245 H 0 Z" /><g
       transform="translate(743.006,206.2171)"
       id="g14"><path
         id="path16"
         style="fill:#d8d8d8;fill-opacity:1;fill-rule:nonzero;stroke:none"
         d="m 0,0 v -91.302 h -25.205 v 35.738 h -72.398 v -35.738 h -25.204 V 0 h 25.204 v -35.608 h 72.398 V 0 Z" /></g><g
       id="g18"><g
         clip-path="url(#clipPath24)"
         id="g20"><g
           transform="translate(839.8371,114.915)"
           id="g26"><path
             id="path28"
             style="fill:#d8d8d8;fill-opacity:1;fill-rule:nonzero;stroke:none"
             d="m 0,0 h -15.688 c -13.374,0 -23.749,1.371 -31.12,4.115 -7.374,2.743 -12.538,6.986 -15.496,12.731 -2.958,5.743 -4.436,13.802 -4.436,24.176 v 50.28 h 25.719 V 42.179 c 0,-8.831 2.077,-14.833 6.236,-18.004 4.158,-3.173 12.281,-4.757 24.369,-4.757 h 5.272 c 12.002,0 20.081,1.584 24.241,4.757 4.157,3.171 6.236,9.173 6.236,18.004 V 91.302 H 50.924 V 41.022 C 50.924,30.734 49.445,22.697 46.488,16.91 43.53,11.124 38.386,6.858 31.056,4.115 23.727,1.371 13.374,0 0,0" /></g><g
           transform="translate(996.2086,152.479)"
           id="g30"><path
             id="path32"
             style="fill:#d8d8d8;fill-opacity:1;fill-rule:nonzero;stroke:none"
             d="M 0,0 H -50.023 V -18.259 H 0 c 7.543,0 12.623,0.585 15.239,1.76 2.614,1.173 3.921,3.541 3.921,7.108 v 0.521 c 0,3.653 -1.307,6.044 -3.921,7.175 C 12.623,-0.567 7.543,0 0,0 M 0.129,34.434 H -50.023 V 18.261 H 0.772 c 6,0 10.137,0.542 12.41,1.629 2.27,1.088 3.406,3.109 3.406,6.066 v 0.522 c 0,3.043 -1.156,5.13 -3.471,6.261 -2.315,1.129 -6.646,1.695 -12.988,1.695 m 44.237,-45.13 v -1.956 c 0,-9.218 -2.894,-15.674 -8.68,-19.368 -5.788,-3.698 -15.84,-5.544 -30.157,-5.544 H -75.228 V 53.738 H 2.829 c 14.231,0 24.283,-1.587 30.155,-4.761 5.871,-3.174 8.81,-8.892 8.81,-17.152 v -1.303 c 0,-6.609 -1.416,-11.524 -4.245,-14.74 -2.829,-3.218 -6.987,-5.217 -12.473,-6 V 9.131 c 6.173,-0.522 10.908,-2.306 14.209,-5.348 3.3,-3.046 4.995,-7.871 5.081,-14.479" /></g><g
           transform="translate(631.3825,87.7509)"
           id="g34"><path
             id="path36"
             style="fill:#d8d8d8;fill-opacity:1;fill-rule:nonzero;stroke:none"
             d="m 0,0 h -8.014 v 6.744 h -2.62 v -15.78 h 2.62 v 6.723 H 0 V -9.036 H 2.62 V 6.744 H 0 Z" /></g><g
           transform="translate(653.5231,85.0438)"
           id="g38"><path
             id="path40"
             style="fill:#d8d8d8;fill-opacity:1;fill-rule:nonzero;stroke:none"
             d="m 0,0 c 0,-0.802 -0.16,-1.505 -0.48,-2.11 -0.321,-0.605 -0.783,-1.069 -1.387,-1.392 -0.604,-0.324 -1.35,-0.485 -2.238,-0.485 -0.888,0 -1.638,0.165 -2.249,0.496 -0.612,0.33 -1.078,0.798 -1.398,1.403 -0.32,0.604 -0.48,1.3 -0.48,2.088 v 9.451 h -2.62 v -9.24 c 0,-1.308 0.258,-2.454 0.775,-3.439 0.516,-0.984 1.274,-1.747 2.271,-2.289 0.997,-0.541 2.23,-0.812 3.701,-0.812 1.47,0 2.704,0.271 3.701,0.812 0.997,0.542 1.75,1.305 2.26,2.289 0.509,0.985 0.764,2.131 0.764,3.439 v 9.24 H 0 Z" /></g><g
           transform="translate(673.0872,84.5299)"
           id="g42"><path
             id="path44"
             style="fill:#d8d8d8;fill-opacity:1;fill-rule:nonzero;stroke:none"
             d="m 0,0 h -0.371 l -4.367,9.965 h -3.538 v -15.78 h 2.402 V 6.911 l 4.149,-9.483 H 1.157 L 5.306,7.004 V -5.815 H 7.904 V 9.965 H 4.323 Z" /></g><g
           transform="translate(693.2809,85.4162)"
           id="g46"><path
             id="path48"
             style="fill:#d8d8d8;fill-opacity:1;fill-rule:nonzero;stroke:none"
             d="M 0,0 2.385,6.852 H 3.174 L 5.634,0 Z m 0.637,9.079 -5.59,-15.78 h 2.62 l 1.551,4.453 H 6.44 l 1.599,-4.453 h 2.708 L 4.982,9.079 Z" /></g><g
           transform="translate(723.3299,80.9416)"
           id="g50"><path
             id="path52"
             style="fill:#d8d8d8;fill-opacity:1;fill-rule:nonzero;stroke:none"
             d="m 0,0 h -0.284 l -7.402,13.554 h -4.28 V -2.227 h 2.446 v 13.554 h 0.284 L -1.834,-2.227 H 2.489 V 13.554 H 0 Z" /></g><g
           transform="translate(752.6102,84.5299)"
           id="g54"><path
             id="path56"
             style="fill:#d8d8d8;fill-opacity:1;fill-rule:nonzero;stroke:none"
             d="m 0,0 h -0.371 l -4.367,9.965 h -3.537 v -15.78 h 2.401 V 6.911 l 4.149,-9.483 H 1.157 L 5.306,7.004 V -5.815 H 7.905 V 9.965 H 4.324 Z" /></g><g
           transform="translate(782.0768,84.4607)"
           id="g58"><path
             id="path60"
             style="fill:#d8d8d8;fill-opacity:1;fill-rule:nonzero;stroke:none"
             d="m 0,0 c -0.255,-0.67 -0.63,-1.265 -1.124,-1.785 -0.496,-0.52 -1.092,-0.931 -1.791,-1.232 -0.699,-0.301 -1.485,-0.451 -2.358,-0.451 -0.874,0 -1.66,0.15 -2.358,0.451 -0.699,0.301 -1.296,0.712 -1.791,1.232 -0.495,0.52 -0.87,1.115 -1.124,1.785 -0.255,0.67 -0.383,1.382 -0.383,2.134 0,0.793 0.128,1.529 0.383,2.206 0.254,0.677 0.629,1.272 1.124,1.785 0.495,0.513 1.092,0.913 1.791,1.201 0.698,0.287 1.484,0.431 2.358,0.431 0.873,0 1.659,-0.144 2.358,-0.431 0.699,-0.288 1.292,-0.688 1.78,-1.201 C -0.648,5.612 -0.273,5.017 -0.011,4.34 0.251,3.663 0.382,2.927 0.382,2.134 0.382,1.382 0.254,0.67 0,0 m 0.972,7.562 c -0.699,0.745 -1.565,1.344 -2.599,1.795 -1.034,0.452 -2.249,0.678 -3.646,0.678 -1.398,0 -2.617,-0.226 -3.658,-0.678 -1.041,-0.451 -1.907,-1.05 -2.598,-1.795 -0.691,-0.746 -1.208,-1.57 -1.55,-2.473 -0.342,-0.903 -0.514,-1.806 -0.514,-2.709 V 1.929 c 0,-0.821 0.164,-1.679 0.492,-2.576 0.327,-0.895 0.833,-1.733 1.518,-2.513 0.684,-0.78 1.546,-1.406 2.587,-1.878 1.041,-0.472 2.282,-0.708 3.723,-0.708 1.426,0 2.664,0.236 3.712,0.708 1.048,0.472 1.91,1.098 2.587,1.878 0.677,0.78 1.183,1.618 1.518,2.513 0.335,0.897 0.502,1.755 0.502,2.576 V 2.38 C 3.046,3.283 2.875,4.186 2.533,5.089 2.191,5.992 1.67,6.816 0.972,7.562" /></g><g
           transform="translate(801.2698,81.4909)"
           id="g62"><path
             id="path64"
             style="fill:#d8d8d8;fill-opacity:1;fill-rule:nonzero;stroke:none"
             d="m 0,0 c -0.43,-0.427 -1.037,-0.641 -1.823,-0.641 h -3.778 v 4.783 h 3.778 c 0.8,0 1.411,-0.21 1.834,-0.629 C 0.433,3.093 0.644,2.505 0.644,1.751 0.644,1.011 0.429,0.427 0,0 m -5.601,10.869 h 3.188 c 0.83,0 1.438,-0.217 1.823,-0.651 C -0.204,9.783 -0.011,9.217 -0.011,8.52 -0.011,7.837 -0.204,7.278 -0.59,6.844 -0.975,6.41 -1.583,6.193 -2.413,6.193 H -5.601 Z M 0.869,5.308 C 1.286,5.533 1.66,5.798 1.943,6.15 2.402,6.719 2.631,7.488 2.631,8.456 v 0.299 c 0,1.367 -0.451,2.416 -1.354,3.149 -0.902,0.734 -2.242,1.1 -4.017,1.1 h -2.861 -0.436 -2.162 v -15.78 h 2.162 0.436 3.515 c 1.194,0 2.188,0.167 2.981,0.502 0.793,0.334 1.39,0.825 1.79,1.473 0.401,0.648 0.601,1.427 0.601,2.339 V 1.837 C 3.286,2.819 3.053,3.594 2.588,4.164 2.161,4.685 1.576,5.056 0.869,5.308" /></g><path
           id="path66"
           style="fill:#d8d8d8;fill-opacity:1;fill-rule:nonzero;stroke:none"
           d="m 812.744,78.715 h 2.62 v 15.78 h -2.62 z" /><g
           transform="translate(827.0023,94.4952)"
           id="g68"><path
             id="path70"
             style="fill:#d8d8d8;fill-opacity:1;fill-rule:nonzero;stroke:none"
             d="M 0,0 H -2.62 V -15.78 H -0.437 0 6.66 v 2.313 H 0 Z" /></g><path
           id="path72"
           style="fill:#d8d8d8;fill-opacity:1;fill-rule:nonzero;stroke:none"
           d="m 841.108,78.715 h 2.62 v 15.78 h -2.62 z" /><g
           transform="translate(851.1514,92.2038)"
           id="g74"><path
             id="path76"
             style="fill:#d8d8d8;fill-opacity:1;fill-rule:nonzero;stroke:none"
             d="m 0,0 h 4.717 v -13.489 h 2.62 V 0 h 4.738 V 2.291 H 0 Z" /></g><g
           transform="translate(876.4373,86.7781)"
           id="g78"><path
             id="path80"
             style="fill:#d8d8d8;fill-opacity:1;fill-rule:nonzero;stroke:none"
             d="m 0,0 h -0.971 l -3.855,7.717 h -2.708 l 4.935,-9.684 h 0.786 v -6.096 h 2.555 v 6.096 H 1.527 L 6.135,7.717 H 3.58 Z" /></g><g
           transform="translate(908.3481,87.0565)"
           id="g82"><path
             id="path84"
             style="fill:#d8d8d8;fill-opacity:1;fill-rule:nonzero;stroke:none"
             d="M 0,0 C -0.823,0.362 -1.794,0.585 -2.915,0.667 L -4.487,0.79 c -0.845,0.068 -1.47,0.298 -1.878,0.687 -0.408,0.39 -0.611,0.838 -0.611,1.344 0,0.425 0.116,0.822 0.349,1.191 0.233,0.369 0.579,0.67 1.037,0.903 0.459,0.232 1.037,0.349 1.736,0.349 0.728,0 1.324,-0.124 1.79,-0.37 0.466,-0.246 0.812,-0.564 1.038,-0.954 0.225,-0.39 0.338,-0.804 0.338,-1.242 h 2.577 c 0,0.972 -0.237,1.809 -0.71,2.514 -0.473,0.705 -1.139,1.252 -1.998,1.642 -0.859,0.39 -1.87,0.585 -3.035,0.585 -1.135,0 -2.133,-0.195 -2.991,-0.585 -0.86,-0.39 -1.526,-0.927 -1.998,-1.611 -0.474,-0.684 -0.71,-1.491 -0.71,-2.422 0,-1.217 0.437,-2.199 1.31,-2.944 0.873,-0.746 2.045,-1.173 3.516,-1.283 l 1.594,-0.143 c 1.048,-0.082 1.834,-0.305 2.358,-0.667 0.524,-0.363 0.786,-0.831 0.786,-1.406 0,-0.465 -0.135,-0.889 -0.404,-1.272 -0.27,-0.383 -0.684,-0.691 -1.245,-0.924 -0.56,-0.232 -1.27,-0.348 -2.128,-0.348 -0.947,0 -1.697,0.133 -2.25,0.4 -0.553,0.266 -0.953,0.605 -1.201,1.015 -0.247,0.411 -0.371,0.828 -0.371,1.252 h -2.576 c 0,-0.93 0.247,-1.761 0.742,-2.493 0.495,-0.732 1.219,-1.307 2.173,-1.724 0.953,-0.417 2.114,-0.626 3.483,-0.626 1.28,0 2.397,0.199 3.351,0.595 0.953,0.397 1.696,0.951 2.227,1.663 0.532,0.711 0.797,1.531 0.797,2.462 0,0.848 -0.229,1.573 -0.688,2.175 C 1.463,-0.845 0.822,-0.363 0,0" /></g><g
           transform="translate(921.46,85.6107)"
           id="g86"><path
             id="path88"
             style="fill:#d8d8d8;fill-opacity:1;fill-rule:nonzero;stroke:none"
             d="M 0,0 H 6.42 V 2.248 H 0 V 6.636 H 6.835 V 8.885 H 0 -0.437 -2.598 V -6.896 H -0.437 0 7.031 v 2.248 l -7.031,0 z" /></g><g
           transform="translate(944.1465,86.7124)"
           id="g90"><path
             id="path92"
             style="fill:#d8d8d8;fill-opacity:1;fill-rule:nonzero;stroke:none"
             d="M 0,0 C -0.451,-0.251 -0.99,-0.376 -1.616,-0.376 H -4.913 V 5.55 h 3.297 C -0.99,5.55 -0.451,5.421 0,5.163 0.451,4.906 0.797,4.555 1.037,4.111 1.278,3.668 1.397,3.159 1.397,2.587 1.397,2 1.278,1.485 1.037,1.041 0.797,0.597 0.451,0.25 0,0 m 1.212,-2.007 c 0.895,0.357 1.594,0.901 2.096,1.631 0.502,0.73 0.753,1.668 0.753,2.813 V 2.78 C 4.061,3.925 3.814,4.863 3.319,5.593 2.824,6.323 2.125,6.871 1.223,7.235 0.32,7.6 -0.742,7.783 -1.965,7.783 h -2.948 -0.851 -1.769 v -15.78 h 2.62 v 5.453 h 2.948 c 0.069,0 0.126,0.014 0.194,0.015 l 4.02,-5.468 H 5.372 L 0.9,-2.093 c 0.099,0.034 0.217,0.048 0.312,0.086" /></g><g
           transform="translate(962.8066,80.9416)"
           id="g94"><path
             id="path96"
             style="fill:#d8d8d8;fill-opacity:1;fill-rule:nonzero;stroke:none"
             d="M 0,0 H -0.78 L -5.209,13.554 H -7.895 L -2.611,-2.227 H 1.778 L 6.713,13.554 H 4.092 Z" /></g><path
           id="path98"
           style="fill:#d8d8d8;fill-opacity:1;fill-rule:nonzero;stroke:none"
           d="m 977.008,78.715 h 2.62 v 15.78 h -2.62 z" /><g
           transform="translate(998.9307,81.8853)"
           id="g100"><path
             id="path102"
             style="fill:#d8d8d8;fill-opacity:1;fill-rule:nonzero;stroke:none"
             d="m 0,0 c -0.873,-0.595 -1.951,-0.893 -3.232,-0.893 -0.888,0 -1.67,0.144 -2.347,0.431 -0.677,0.288 -1.241,0.691 -1.692,1.211 -0.451,0.52 -0.79,1.118 -1.016,1.796 -0.225,0.677 -0.338,1.398 -0.338,2.164 0,0.808 0.113,1.55 0.338,2.227 0.226,0.677 0.557,1.269 0.994,1.775 0.437,0.506 0.986,0.903 1.649,1.19 0.662,0.287 1.422,0.431 2.281,0.431 0.83,0 1.576,-0.13 2.239,-0.39 C -0.462,9.682 0.084,9.296 0.513,8.783 0.942,8.27 1.215,7.63 1.332,6.864 H 3.974 C 3.857,8.027 3.49,9.036 2.871,9.891 c -0.619,0.855 -1.452,1.522 -2.5,2.001 -1.048,0.479 -2.293,0.718 -3.734,0.718 -1.383,0 -2.58,-0.226 -3.591,-0.677 -1.012,-0.452 -1.835,-1.047 -2.468,-1.786 -0.633,-0.738 -1.103,-1.559 -1.408,-2.462 -0.306,-0.903 -0.459,-1.813 -0.459,-2.729 V 4.504 c 0,-0.834 0.15,-1.7 0.448,-2.596 0.298,-0.896 0.764,-1.73 1.397,-2.503 0.633,-0.773 1.463,-1.395 2.49,-1.868 1.026,-0.471 2.267,-0.707 3.722,-0.707 1.5,0 2.781,0.256 3.843,0.769 1.063,0.513 1.9,1.204 2.511,2.073 0.612,0.868 0.99,1.829 1.136,2.883 H 1.594 C 1.405,1.447 0.873,0.595 0,0" /></g><g
           transform="translate(1013.3422,85.6107)"
           id="g104"><path
             id="path106"
             style="fill:#d8d8d8;fill-opacity:1;fill-rule:nonzero;stroke:none"
             d="M 0,0 H 6.42 V 2.248 H 0 V 6.636 H 6.834 V 8.885 H 0 -0.437 -2.599 V -6.896 H -0.437 0 7.031 v 2.248 l -7.031,0 z" /></g><g
           transform="translate(1039.3368,85.6099)"
           id="g108"><path
             id="path110"
             style="fill:#d8d8d8;fill-opacity:1;fill-rule:nonzero;stroke:none"
             d="m 0,0 c -0.458,0.602 -1.099,1.084 -1.922,1.447 -0.822,0.362 -1.794,0.584 -2.915,0.667 l -1.572,0.123 c -0.844,0.068 -1.47,0.297 -1.877,0.687 -0.408,0.39 -0.612,0.838 -0.612,1.344 0,0.424 0.117,0.821 0.35,1.19 0.232,0.37 0.578,0.671 1.037,0.903 0.458,0.233 1.037,0.349 1.736,0.349 0.727,0 1.324,-0.123 1.79,-0.369 0.466,-0.246 0.811,-0.565 1.037,-0.954 0.226,-0.39 0.339,-0.804 0.339,-1.242 h 2.576 c 0,0.971 -0.237,1.809 -0.709,2.514 C -1.216,7.363 -1.881,7.91 -2.74,8.301 -3.6,8.69 -4.611,8.885 -5.775,8.885 -6.911,8.885 -7.908,8.69 -8.767,8.301 -9.626,7.91 -10.292,7.374 -10.765,6.69 c -0.473,-0.685 -0.709,-1.491 -0.709,-2.422 0,-1.218 0.436,-2.199 1.31,-2.944 0.873,-0.746 2.045,-1.174 3.515,-1.283 l 1.594,-0.144 c 1.048,-0.082 1.834,-0.304 2.358,-0.667 0.524,-0.362 0.786,-0.831 0.786,-1.405 0,-0.466 -0.135,-0.89 -0.404,-1.272 -0.269,-0.384 -0.684,-0.691 -1.244,-0.924 -0.561,-0.233 -1.27,-0.349 -2.129,-0.349 -0.946,0 -1.696,0.134 -2.249,0.4 -0.553,0.267 -0.954,0.606 -1.201,1.016 -0.248,0.41 -0.371,0.828 -0.371,1.252 h -2.577 c 0,-0.931 0.248,-1.762 0.742,-2.493 0.495,-0.732 1.22,-1.307 2.173,-1.724 0.953,-0.417 2.115,-0.626 3.483,-0.626 1.281,0 2.398,0.198 3.351,0.595 0.954,0.397 1.696,0.951 2.228,1.662 0.531,0.711 0.797,1.532 0.797,2.463 C 0.688,-1.327 0.459,-0.602 0,0" /></g><g
           transform="translate(367.0985,38.7829)"
           id="g112"><path
             id="path114"
             style="fill:#4f5d66;fill-opacity:1;fill-rule:nonzero;stroke:none"
             d="m 0,0 h -114.235 l 20.66,72.848 h 72.915 z" /></g><g
           transform="translate(580.5197,38.7829)"
           id="g116"><path
             id="path118"
             style="fill:#4f5d66;fill-opacity:1;fill-rule:nonzero;stroke:none"
             d="m 0,0 h -109.769 c -9.049,0 -17.003,4.819 -21.384,12.049 -0.203,0.353 -90.947,155.385 -90.947,155.385 h 30.855 z" /></g><g
           transform="translate(337.8615,141.8285)"
           id="g120"><path
             id="path122"
             style="fill:#4f5d66;fill-opacity:1;fill-rule:nonzero;stroke:none"
             d="m 0,0 h -55.761 l 18.267,64.389 h 19.227 z" /></g><g
           transform="translate(261.5253,206.2171)"
           id="g124"><path
             id="path126"
             style="fill:#4f5d66;fill-opacity:1;fill-rule:nonzero;stroke:none"
             d="m 0,0 c 0,0 -90.778,-155.133 -91.031,-155.554 -4.415,-7.128 -12.301,-11.88 -21.299,-11.88 H -222.1 L -30.838,0 Z" /></g></g></g></g></svg>