<?xml version="1.0" encoding="UTF-8" standalone="no"?>
<svg
   xmlns:dc="http://purl.org/dc/elements/1.1/"
   xmlns:cc="http://creativecommons.org/ns#"
   xmlns:rdf="http://www.w3.org/1999/02/22-rdf-syntax-ns#"
   xmlns:svg="http://www.w3.org/2000/svg"
   xmlns="http://www.w3.org/2000/svg"
   viewBox="0 0 1440 1046.6667"
   height="1046.6667"
   width="1440"
   xml:space="preserve"
   id="svg2"
   version="1.1"><metadata
     id="metadata8"><rdf:RDF><cc:Work
         rdf:about=""><dc:format>image/svg+xml</dc:format><dc:type
           rdf:resource="http://purl.org/dc/dcmitype/StillImage" /></cc:Work></rdf:RDF></metadata><defs
     id="defs6"><clipPath
       id="clipPath24"
       clipPathUnits="userSpaceOnUse"><path
         id="path22"
         d="M 0,785 H 1080 V 0 H 0 Z" /></clipPath></defs><g
     transform="matrix(1.3333333,0,0,-1.3333333,0,1046.6667)"
     id="g10"><path
       id="path12"
       style="fill:#1b2328;fill-opacity:1;fill-rule:nonzero;stroke:none"
       d="M 0,0 H 1080 V 785 H 0 Z" /><g
       transform="translate(344.0612,355.2689)"
       id="g14"><path
         id="path16"
         style="fill:#d8d8d8;fill-opacity:1;fill-rule:nonzero;stroke:none"
         d="m 0,0 v -204.732 h -56.518 v 80.137 h -162.344 v -80.137 h -56.516 V 0 h 56.516 V -79.847 H -56.518 V 0 Z" /></g><g
       id="g18"><g
         clip-path="url(#clipPath24)"
         id="g20"><g
           transform="translate(561.1914,150.5366)"
           id="g26"><path
             id="path28"
             style="fill:#d8d8d8;fill-opacity:1;fill-rule:nonzero;stroke:none"
             d="m 0,0 h -35.177 c -29.99,0 -53.254,3.074 -69.784,9.228 -16.536,6.15 -28.115,15.665 -34.748,28.546 -6.632,12.878 -9.947,30.95 -9.947,54.213 v 112.745 h 57.671 V 94.58 c 0,-19.802 4.659,-33.26 13.985,-40.371 9.324,-7.114 27.538,-10.668 54.644,-10.668 h 11.821 c 26.913,0 45.03,3.554 54.358,10.668 9.321,7.111 13.983,20.569 13.983,40.371 v 110.152 h 57.383 V 91.987 c 0,-23.069 -3.315,-41.093 -9.946,-54.068 C 97.609,24.944 86.074,15.378 69.639,9.228 53.204,3.074 29.99,0 0,0" /></g><g
           transform="translate(911.8329,234.7687)"
           id="g30"><path
             id="path32"
             style="fill:#d8d8d8;fill-opacity:1;fill-rule:nonzero;stroke:none"
             d="M 0,0 H -112.169 V -40.944 H 0 c 16.915,0 28.305,1.313 34.172,3.947 5.861,2.631 8.793,7.941 8.793,15.938 v 1.17 c 0,8.19 -2.932,13.552 -8.793,16.088 C 28.305,-1.272 16.915,0 0,0 M 0.29,77.212 H -112.169 V 40.948 H 1.73 c 13.455,0 22.731,1.215 27.828,3.653 5.091,2.438 7.639,6.971 7.639,13.602 v 1.17 c 0,6.823 -2.593,11.503 -7.784,14.039 -5.19,2.532 -14.902,3.8 -29.123,3.8 M 99.484,-23.984 v -4.385 c 0,-20.67 -6.489,-35.147 -19.464,-43.432 C 67.042,-80.092 44.501,-84.232 12.398,-84.232 H -168.688 V 120.5 H 6.344 c 31.91,0 54.451,-3.559 67.619,-10.676 13.165,-7.118 19.754,-19.938 19.754,-38.461 v -2.922 c 0,-14.82 -3.174,-25.84 -9.518,-33.052 -6.344,-7.216 -15.668,-11.7 -27.97,-13.454 v -1.461 c 13.842,-1.17 24.461,-5.17 31.862,-11.99 7.401,-6.831 11.2,-17.651 11.393,-32.468" /></g><g
           transform="translate(93.7608,89.6247)"
           id="g34"><path
             id="path36"
             style="fill:#d8d8d8;fill-opacity:1;fill-rule:nonzero;stroke:none"
             d="m 0,0 h -17.969 v 15.123 h -5.876 v -35.385 h 5.876 V -5.187 H 0 v -15.075 h 5.875 v 35.385 l -5.875,0 z" /></g><g
           transform="translate(143.4079,83.5546)"
           id="g38"><path
             id="path40"
             style="fill:#d8d8d8;fill-opacity:1;fill-rule:nonzero;stroke:none"
             d="m 0,0 c 0,-1.798 -0.36,-3.375 -1.077,-4.731 -0.719,-1.356 -1.755,-2.397 -3.109,-3.122 -1.356,-0.726 -3.028,-1.088 -5.019,-1.088 -1.991,0 -3.672,0.37 -5.043,1.112 -1.371,0.741 -2.416,1.79 -3.134,3.146 -0.718,1.355 -1.077,2.917 -1.077,4.683 v 21.193 h -5.875 V 0.473 c 0,-2.932 0.579,-5.503 1.738,-7.711 1.158,-2.208 2.856,-3.919 5.092,-5.133 2.235,-1.213 5.002,-1.821 8.299,-1.821 3.296,0 6.063,0.608 8.299,1.821 2.235,1.214 3.925,2.925 5.068,5.133 1.142,2.208 1.714,4.779 1.714,7.711 v 20.72 H 0 Z" /></g><g
           transform="translate(187.2777,82.4021)"
           id="g42"><path
             id="path44"
             style="fill:#d8d8d8;fill-opacity:1;fill-rule:nonzero;stroke:none"
             d="m 0,0 h -0.832 l -9.792,22.346 h -7.933 v -35.385 h 5.386 v 28.535 l 9.303,-21.264 h 6.463 l 9.302,21.474 v -28.745 h 5.827 v 35.385 h -8.03 z" /></g><g
           transform="translate(232.5594,84.3895)"
           id="g46"><path
             id="path48"
             style="fill:#d8d8d8;fill-opacity:1;fill-rule:nonzero;stroke:none"
             d="M 0,0 5.349,15.366 H 7.117 L 12.633,0 Z m 1.428,20.358 -12.534,-35.385 h 5.875 l 3.476,9.986 h 16.197 l 3.585,-9.986 h 6.071 L 11.171,20.358 Z" /></g><g
           transform="translate(299.9401,74.356)"
           id="g50"><path
             id="path52"
             style="fill:#d8d8d8;fill-opacity:1;fill-rule:nonzero;stroke:none"
             d="m 0,0 h -0.636 l -16.599,30.392 h -9.596 V -4.993 h 5.484 v 30.392 h 0.636 L -4.112,-4.993 H 5.582 V 30.392 H 0 Z" /></g><g
           transform="translate(365.5971,82.4021)"
           id="g54"><path
             id="path56"
             style="fill:#d8d8d8;fill-opacity:1;fill-rule:nonzero;stroke:none"
             d="m 0,0 h -0.832 l -9.793,22.346 h -7.931 v -35.385 h 5.385 v 28.535 l 9.304,-21.264 h 6.462 l 9.303,21.474 v -28.745 h 5.827 v 35.385 h -8.03 z" /></g><g
           transform="translate(431.6719,82.2469)"
           id="g58"><path
             id="path60"
             style="fill:#d8d8d8;fill-opacity:1;fill-rule:nonzero;stroke:none"
             d="M 0,0 C -0.571,-1.503 -1.412,-2.837 -2.521,-4.003 -3.632,-5.17 -4.97,-6.09 -6.536,-6.764 c -1.568,-0.675 -3.33,-1.013 -5.289,-1.013 -1.958,0 -3.72,0.338 -5.287,1.013 -1.567,0.674 -2.906,1.594 -4.015,2.761 -1.11,1.166 -1.951,2.5 -2.522,4.003 -0.571,1.503 -0.857,3.098 -0.857,4.785 0,1.779 0.286,3.429 0.857,4.947 0.571,1.519 1.412,2.853 2.522,4.003 1.109,1.151 2.448,2.048 4.015,2.693 1.567,0.643 3.329,0.966 5.287,0.966 1.959,0 3.721,-0.323 5.289,-0.966 1.566,-0.645 2.896,-1.542 3.99,-2.693 1.093,-1.15 1.934,-2.484 2.522,-4.003 C 0.563,8.214 0.857,6.564 0.857,4.785 0.857,3.098 0.57,1.503 0,0 m 2.179,16.957 c -1.567,1.671 -3.509,3.013 -5.826,4.025 -2.319,1.013 -5.044,1.519 -8.178,1.519 -3.133,0 -5.868,-0.506 -8.201,-1.519 -2.334,-1.012 -4.276,-2.354 -5.826,-4.025 -1.551,-1.673 -2.71,-3.521 -3.476,-5.545 -0.767,-2.025 -1.151,-4.049 -1.151,-6.074 V 4.325 c 0,-1.84 0.367,-3.765 1.102,-5.775 0.734,-2.009 1.868,-3.888 3.403,-5.636 1.533,-1.749 3.467,-3.152 5.801,-4.211 2.334,-1.058 5.117,-1.587 8.348,-1.587 3.199,0 5.974,0.529 8.324,1.587 2.351,1.059 4.284,2.462 5.802,4.211 1.518,1.748 2.651,3.627 3.403,5.636 0.751,2.01 1.126,3.935 1.126,5.775 v 1.013 c 0,2.025 -0.384,4.049 -1.151,6.074 -0.767,2.024 -1.933,3.872 -3.5,5.545" /></g><g
           transform="translate(474.7096,75.5876)"
           id="g62"><path
             id="path64"
             style="fill:#d8d8d8;fill-opacity:1;fill-rule:nonzero;stroke:none"
             d="m 0,0 c -0.963,-0.958 -2.326,-1.436 -4.089,-1.436 h -8.47 V 9.289 h 8.47 c 1.796,0 3.166,-0.471 4.113,-1.412 C 0.97,6.935 1.444,5.618 1.444,3.926 1.444,2.266 0.962,0.958 0,0 m -12.559,24.372 h 7.149 c 1.86,0 3.223,-0.487 4.088,-1.46 0.865,-0.975 1.298,-2.243 1.298,-3.807 0,-1.532 -0.433,-2.785 -1.298,-3.758 -0.865,-0.974 -2.228,-1.461 -4.088,-1.461 h -7.149 z M 1.949,11.903 c 0.935,0.503 1.774,1.098 2.409,1.888 1.027,1.276 1.542,2.999 1.542,5.171 v 0.67 c 0,3.064 -1.012,5.418 -3.036,7.062 -2.024,1.644 -5.027,2.466 -9.009,2.466 h -6.414 -0.979 -4.847 V -6.225 h 4.847 0.979 7.882 c 2.677,0 4.905,0.375 6.684,1.125 1.779,0.751 3.117,1.852 4.015,3.305 0.898,1.452 1.347,3.199 1.347,5.243 v 0.67 c 0,2.203 -0.523,3.942 -1.567,5.22 -0.957,1.168 -2.267,1.999 -3.853,2.565" /></g><path
           id="path66"
           style="fill:#d8d8d8;fill-opacity:1;fill-rule:nonzero;stroke:none"
           d="m 500.439,69.363 h 5.876 v 35.385 h -5.876 z" /><g
           transform="translate(532.4111,104.748)"
           id="g68"><path
             id="path70"
             style="fill:#d8d8d8;fill-opacity:1;fill-rule:nonzero;stroke:none"
             d="M 0,0 H -5.876 V -35.385 H -0.979 0 14.933 v 5.187 l -14.933,0 z" /></g><path
           id="path72"
           style="fill:#d8d8d8;fill-opacity:1;fill-rule:nonzero;stroke:none"
           d="m 564.04,69.363 h 5.876 v 35.385 h -5.876 z" /><g
           transform="translate(586.5621,99.6099)"
           id="g74"><path
             id="path76"
             style="fill:#d8d8d8;fill-opacity:1;fill-rule:nonzero;stroke:none"
             d="m 0,0 h 10.576 v -30.247 h 5.875 V 0 H 27.076 V 5.138 H 0 Z" /></g><g
           transform="translate(643.2624,87.4434)"
           id="g78"><path
             id="path80"
             style="fill:#d8d8d8;fill-opacity:1;fill-rule:nonzero;stroke:none"
             d="m 0,0 h -2.178 l -8.644,17.305 h -6.072 L -5.828,-4.411 h 1.762 V -18.08 H 1.663 V -4.411 H 3.425 L 13.757,17.305 H 8.028 Z" /></g><g
           transform="translate(714.8179,88.0677)"
           id="g82"><path
             id="path84"
             style="fill:#d8d8d8;fill-opacity:1;fill-rule:nonzero;stroke:none"
             d="m 0,0 c -1.845,0.812 -4.024,1.311 -6.536,1.495 l -3.526,0.277 c -1.893,0.153 -3.297,0.667 -4.211,1.541 -0.913,0.874 -1.371,1.878 -1.371,3.014 0,0.951 0.261,1.841 0.784,2.669 0.521,0.828 1.298,1.503 2.325,2.025 1.029,0.521 2.326,0.782 3.893,0.782 1.632,0 2.97,-0.277 4.015,-0.828 1.044,-0.552 1.819,-1.266 2.326,-2.14 0.505,-0.875 0.759,-1.802 0.759,-2.784 h 5.777 c 0,2.178 -0.53,4.056 -1.591,5.637 -1.061,1.579 -2.554,2.806 -4.48,3.681 -1.927,0.874 -4.194,1.311 -6.806,1.311 -2.546,0 -4.783,-0.437 -6.708,-1.311 -1.926,-0.875 -3.42,-2.079 -4.48,-3.612 -1.061,-1.535 -1.591,-3.344 -1.591,-5.43 0,-2.731 0.979,-4.931 2.938,-6.603 1.958,-1.672 4.585,-2.631 7.883,-2.876 l 3.574,-0.322 c 2.35,-0.184 4.113,-0.683 5.287,-1.496 1.176,-0.813 1.763,-1.863 1.763,-3.151 0,-1.044 -0.302,-1.995 -0.906,-2.853 -0.604,-0.86 -1.534,-1.549 -2.79,-2.071 -1.258,-0.522 -2.849,-0.782 -4.774,-0.782 -2.122,0 -3.803,0.299 -5.043,0.897 -1.242,0.598 -2.139,1.358 -2.694,2.278 -0.554,0.92 -0.831,1.855 -0.831,2.807 h -5.778 c 0,-2.087 0.555,-3.95 1.665,-5.591 1.109,-1.642 2.733,-2.93 4.871,-3.866 2.138,-0.935 4.741,-1.403 7.81,-1.403 2.872,0 5.377,0.445 7.516,1.334 2.137,0.89 3.802,2.133 4.994,3.728 1.192,1.594 1.786,3.435 1.786,5.522 0,1.901 -0.513,3.527 -1.542,4.877 C 3.28,-1.894 1.844,-0.813 0,0" /></g><g
           transform="translate(744.2195,84.8256)"
           id="g86"><path
             id="path88"
             style="fill:#d8d8d8;fill-opacity:1;fill-rule:nonzero;stroke:none"
             d="M 0,0 H 14.395 V 5.041 H 0 v 9.84 h 15.325 v 5.041 H 0 -0.979 -5.826 V -15.463 H -0.979 0 15.766 v 5.041 l -15.766,0 z" /></g><g
           transform="translate(795.0908,87.2961)"
           id="g90"><path
             id="path92"
             style="fill:#d8d8d8;fill-opacity:1;fill-rule:nonzero;stroke:none"
             d="m 0,0 c -1.012,-0.562 -2.22,-0.842 -3.623,-0.842 h -7.394 v 13.287 h 7.394 C -2.22,12.445 -1.012,12.156 0,11.578 1.012,11.001 1.787,10.214 2.326,9.219 2.865,8.224 3.133,7.085 3.133,5.802 3.133,4.485 2.865,3.329 2.326,2.335 1.787,1.34 1.012,0.561 0,0 m 2.718,-4.501 c 2.007,0.801 3.574,2.022 4.7,3.659 1.126,1.637 1.689,3.738 1.689,6.307 v 0.77 c 0,2.567 -0.555,4.67 -1.665,6.307 -1.11,1.636 -2.677,2.864 -4.7,3.683 -2.024,0.818 -4.407,1.227 -7.149,1.227 h -6.61 -1.909 -3.966 v -35.385 h 5.875 v 12.228 h 6.61 c 0.156,0 0.283,0.032 0.436,0.034 l 9.015,-12.262 h 7.001 L 2.019,-4.693 c 0.222,0.076 0.485,0.107 0.699,0.192" /></g><g
           transform="translate(836.9337,74.356)"
           id="g94"><path
             id="path96"
             style="fill:#d8d8d8;fill-opacity:1;fill-rule:nonzero;stroke:none"
             d="m 0,0 h -1.748 l -9.934,30.392 h -6.021 L -5.855,-4.993 H 3.986 L 15.052,30.392 H 9.176 Z" /></g><path
           id="path98"
           style="fill:#d8d8d8;fill-opacity:1;fill-rule:nonzero;stroke:none"
           d="m 868.779,69.363 h 5.876 v 35.385 h -5.876 z" /><g
           transform="translate(917.9369,76.472)"
           id="g100"><path
             id="path102"
             style="fill:#d8d8d8;fill-opacity:1;fill-rule:nonzero;stroke:none"
             d="m 0,0 c -1.958,-1.335 -4.375,-2.002 -7.247,-2.002 -1.991,0 -3.745,0.322 -5.263,0.967 -1.517,0.644 -2.783,1.549 -3.794,2.715 -1.012,1.165 -1.771,2.507 -2.277,4.026 -0.506,1.518 -0.759,3.136 -0.759,4.854 0,1.81 0.253,3.475 0.759,4.993 0.506,1.518 1.248,2.845 2.228,3.981 0.979,1.133 2.211,2.024 3.697,2.669 1.484,0.643 3.189,0.966 5.115,0.966 1.861,0 3.534,-0.292 5.02,-0.875 1.485,-0.583 2.709,-1.45 3.672,-2.6 0.962,-1.15 1.574,-2.584 1.836,-4.302 h 5.925 c -0.262,2.607 -1.086,4.87 -2.473,6.787 -1.388,1.917 -3.257,3.413 -5.606,4.487 -2.351,1.073 -5.142,1.61 -8.374,1.61 -3.101,0 -5.785,-0.506 -8.053,-1.519 -2.269,-1.012 -4.113,-2.346 -5.533,-4.003 -1.421,-1.656 -2.473,-3.497 -3.158,-5.521 -0.686,-2.026 -1.028,-4.066 -1.028,-6.12 V 10.1 c 0,-1.871 0.334,-3.812 1.004,-5.821 0.668,-2.009 1.713,-3.881 3.133,-5.614 1.419,-1.733 3.28,-3.128 5.582,-4.187 2.301,-1.058 5.083,-1.587 8.347,-1.587 3.362,0 6.235,0.575 8.618,1.725 2.382,1.151 4.259,2.7 5.631,4.648 1.371,1.948 2.219,4.102 2.546,6.465 H 3.574 C 3.15,3.244 1.958,1.335 0,0" /></g><g
           transform="translate(950.2526,84.8256)"
           id="g104"><path
             id="path106"
             style="fill:#d8d8d8;fill-opacity:1;fill-rule:nonzero;stroke:none"
             d="M 0,0 H 14.395 V 5.041 H 0 v 9.84 h 15.325 v 5.041 H 0 -0.98 -5.827 V -15.463 H -0.98 0 15.765 v 5.041 l -15.765,0 z" /></g><g
           transform="translate(1008.5418,84.8239)"
           id="g108"><path
             id="path110"
             style="fill:#d8d8d8;fill-opacity:1;fill-rule:nonzero;stroke:none"
             d="m 0,0 c -1.028,1.35 -2.465,2.431 -4.309,3.244 -1.845,0.812 -4.023,1.311 -6.536,1.495 l -3.526,0.277 c -1.893,0.153 -3.297,0.667 -4.21,1.541 -0.914,0.874 -1.371,1.878 -1.371,3.014 0,0.951 0.261,1.841 0.784,2.669 0.521,0.828 1.297,1.503 2.325,2.025 1.028,0.52 2.326,0.782 3.893,0.782 1.631,0 2.969,-0.277 4.014,-0.829 1.045,-0.551 1.82,-1.265 2.327,-2.139 0.505,-0.875 0.758,-1.802 0.758,-2.784 h 5.778 c 0,2.178 -0.531,4.056 -1.591,5.637 -1.062,1.579 -2.555,2.806 -4.481,3.681 -1.927,0.874 -4.194,1.311 -6.805,1.311 -2.547,0 -4.783,-0.437 -6.708,-1.311 -1.926,-0.875 -3.42,-2.079 -4.481,-3.612 -1.06,-1.535 -1.591,-3.344 -1.591,-5.43 0,-2.731 0.979,-4.931 2.939,-6.603 1.958,-1.673 4.584,-2.631 7.882,-2.876 l 3.574,-0.322 c 2.35,-0.184 4.113,-0.683 5.288,-1.496 1.175,-0.813 1.763,-1.863 1.763,-3.152 0,-1.043 -0.303,-1.994 -0.906,-2.852 -0.604,-0.86 -1.534,-1.55 -2.791,-2.071 -1.257,-0.522 -2.848,-0.782 -4.774,-0.782 -2.122,0 -3.802,0.299 -5.042,0.897 -1.242,0.598 -2.139,1.357 -2.694,2.277 -0.555,0.921 -0.832,1.856 -0.832,2.807 H -27.1 c 0,-2.086 0.555,-3.949 1.664,-5.59 1.109,-1.642 2.734,-2.93 4.872,-3.866 2.137,-0.935 4.741,-1.403 7.809,-1.403 2.872,0 5.378,0.445 7.516,1.334 2.137,0.89 3.803,2.133 4.994,3.728 1.192,1.594 1.787,3.434 1.787,5.521 C 1.542,-2.976 1.029,-1.35 0,0" /></g><g
           transform="translate(639.5183,423.9518)"
           id="g112"><path
             id="path114"
             style="fill:#4f5d66;fill-opacity:1;fill-rule:nonzero;stroke:none"
             d="m 0,0 h -199.007 l 35.991,126.908 h 127.025 z" /></g><g
           transform="translate(1011.3171,423.9518)"
           id="g116"><path
             id="path118"
             style="fill:#4f5d66;fill-opacity:1;fill-rule:nonzero;stroke:none"
             d="m 0,0 h -191.228 c -15.764,0 -29.62,8.396 -37.253,20.99 -0.352,0.616 -158.436,270.695 -158.436,270.695 h 53.751 z" /></g><g
           transform="translate(588.5848,603.4663)"
           id="g120"><path
             id="path122"
             style="fill:#4f5d66;fill-opacity:1;fill-rule:nonzero;stroke:none"
             d="m 0,0 h -97.14 l 31.822,112.171 h 33.496 z" /></g><g
           transform="translate(455.6003,715.637)"
           id="g124"><path
             id="path126"
             style="fill:#4f5d66;fill-opacity:1;fill-rule:nonzero;stroke:none"
             d="m 0,0 c 0,0 -158.143,-270.255 -158.583,-270.989 -7.692,-12.418 -21.431,-20.696 -37.107,-20.696 H -386.917 L -53.722,0 Z" /></g></g></g></g></svg>