<?xml version="1.0" standalone="no"?>
<!DOCTYPE svg PUBLIC "-//W3C//DTD SVG 20010904//EN" "http://www.w3.org/TR/2001/REC-SVG-20010904/DTD/svg10.dtd">
<svg
  version="1.0"
  xmlns="http://www.w3.org/2000/svg"
  width="512.000000pt"
  height="512.000000pt"
  viewBox="0 0 512.000000 512.000000"
  preserveAspectRatio="xMidYMid meet"
>
  <g
    transform="translate(0.000000,512.000000) scale(0.100000,-0.100000)"
    fill="#8B0000"
    stroke="none"
  >
    <path
      d="M1970 3230 c-213 -37 -526 -107 -880 -195 -152 -38 -265 -59 -385
-73 -180 -21 -185 -20 -185 26 0 23 2 24 63 18 34 -4 79 -9 99 -12 l38 -6 0
74 0 74 -317 33 c-175 17 -335 35 -355 38 l-38 6 0 -75 0 -75 92 -9 92 -9 17
-85 17 -85 -81 -188 c-47 -108 -96 -205 -114 -227 l-33 -38 43 -173 43 -174
88 -3 c83 -3 87 -2 81 17 -62 197 29 407 214 495 61 29 74 31 171 31 92 0 112
-4 162 -27 178 -83 278 -293 224 -471 l-14 -47 1430 0 1430 0 -9 33 c-4 17 -8
75 -8 127 0 87 3 101 32 161 40 80 120 159 200 197 52 24 70 27 163 27 98 0
110 -2 170 -32 83 -41 152 -110 193 -193 30 -60 32 -72 32 -165 0 -55 -4 -112
-9 -127 l-8 -28 247 0 c221 0 247 2 241 16 -3 9 -6 21 -6 27 0 7 -33 39 -74
72 l-73 60 -28 145 c-15 80 -33 154 -40 166 -19 29 -215 105 -625 241 -517
172 -1091 342 -1380 410 -100 23 -124 24 -485 28 -217 2 -404 0 -435 -5z m585
-69 c264 -10 305 -18 700 -129 l240 -68 33 -62 33 -62 -38 0 c-22 0 -183 9
-358 20 -176 11 -507 31 -735 45 -292 17 -418 28 -426 37 -11 13 -58 198 -51
204 2 2 35 8 73 13 91 11 248 12 529 2z m-2153 -137 c66 -7 66 -7 73 -41 3
-19 3 -38 0 -42 -7 -7 -198 -31 -204 -26 -2 2 -9 32 -16 66 l-13 61 46 -6 c26
-3 77 -8 114 -12z m3316 -129 c73 -22 132 -43 132 -47 0 -20 -45 -28 -124 -22
l-86 7 -41 54 c-23 30 -35 53 -27 51 8 -1 74 -21 146 -43z m-1359 -75 c74 -6
139 -10 145 -10 5 0 -1 -12 -15 -26 -24 -25 -26 -26 -124 -20 -251 16 -252 16
-264 42 -6 14 -11 27 -11 30 0 3 30 3 68 -1 37 -3 128 -10 201 -15z m-1141
-602 c7 -7 12 -24 12 -40 0 -50 -66 -62 -91 -17 -23 43 44 92 79 57z m180 0
c7 -7 12 -25 12 -40 0 -55 -78 -61 -95 -7 -13 41 52 78 83 47z"
    />
    <path
      d="M533 2546 c-160 -52 -258 -213 -231 -382 41 -265 372 -379 567 -196
75 70 106 145 106 252 0 71 -4 94 -26 141 -33 70 -91 130 -161 165 -64 33
-186 43 -255 20z m212 -95 c90 -40 144 -125 145 -229 0 -103 -42 -178 -128
-225 -66 -36 -125 -43 -193 -24 -182 53 -247 271 -124 414 74 86 192 111 300
64z"
    />
    <path
      d="M562 2302 c-38 -35 -48 -79 -28 -125 32 -77 121 -94 182 -33 28 28
34 42 34 76 0 34 -6 48 -34 76 -29 29 -41 34 -79 34 -35 0 -51 -6 -75 -28z"
    />
    <path
      d="M4140 2544 c-150 -55 -238 -189 -228 -349 12 -183 153 -315 338 -315
100 0 171 29 241 99 76 76 102 145 97 256 -5 130 -74 238 -186 291 -73 35
-193 43 -262 18z m234 -102 c151 -82 179 -280 57 -402 -72 -72 -159 -95 -254
-66 -209 63 -247 353 -61 462 25 15 60 30 77 35 50 12 127 0 181 -29z"
    />
    <path
      d="M4174 2296 c-86 -86 -6 -215 113 -184 90 23 101 163 16 207 -44 22
-92 14 -129 -23z"
    />
  </g>
</svg>
