<?xml version="1.0" standalone="no"?>
<!DOCTYPE svg PUBLIC "-//W3C//DTD SVG 20010904//EN" "http://www.w3.org/TR/2001/REC-SVG-20010904/DTD/svg10.dtd">
<svg
  version="1.0"
  xmlns="http://www.w3.org/2000/svg"
  width="512.000000pt"
  height="512.000000pt"
  viewBox="0 0 512.000000 512.000000"
  preserveAspectRatio="xMidYMid meet"
>
  <g
    transform="translate(0.000000,512.000000) scale(0.100000,-0.100000)"
    fill="#333333"
    stroke="none"
  >
    <path
      d="M2330 5110 c-474 -43 -923 -219 -1330 -524 -122 -91 -375 -344 -466
-466 -263 -351 -424 -717 -494 -1120 -124 -711 47 -1402 494 -2000 91 -122
344 -375 466 -466 598 -447 1289 -618 2000 -494 403 70 769 231 1120 494 122
91 375 344 466 466 447 598 618 1289 494 2000 -70 403 -231 769 -494 1120 -91
122 -344 375 -466 466 -535 401 -1151 581 -1790 524z m435 -300 c583 -54 1146
-347 1517 -790 715 -853 715 -2067 0 -2920 -371 -443 -934 -736 -1517 -790
-598 -55 -1196 135 -1665 528 -498 417 -800 1067 -800 1722 0 676 320 1341
847 1761 459 366 1041 542 1618 489z"
    />
    <path
      d="M2405 4504 c-16 -2 -66 -9 -110 -15 -770 -100 -1428 -685 -1620
-1439 -47 -185 -59 -283 -59 -490 0 -207 12 -305 59 -490 172 -673 722 -1223
1395 -1395 185 -47 283 -59 490 -59 207 0 305 12 490 59 673 172 1223 722
1395 1395 47 185 59 283 59 490 0 207 -12 305 -59 490 -85 331 -259 634 -510
885 -297 298 -651 479 -1075 550 -91 15 -392 28 -455 19z m274 -300 l31 -6 0
-327 c0 -262 3 -339 15 -386 40 -154 169 -281 325 -321 80 -20 193 -15 265 14
28 11 163 85 300 164 138 80 260 150 271 156 20 11 25 6 62 -51 21 -34 56 -92
75 -128 l37 -67 -278 -158 c-222 -128 -289 -171 -338 -219 -178 -176 -178
-454 0 -630 49 -48 116 -91 338 -219 l278 -158 -37 -67 c-52 -96 -114 -191
-122 -187 -3 1 -132 75 -286 164 -294 169 -348 192 -455 192 -201 0 -384 -141
-434 -335 -13 -48 -16 -123 -16 -386 l0 -327 -31 -6 c-41 -8 -197 -8 -238 0
l-31 7 0 326 c0 263 -3 338 -16 386 -40 154 -168 281 -324 321 -80 20 -193 15
-265 -14 -28 -11 -163 -85 -300 -164 -138 -80 -260 -150 -271 -156 -20 -11
-25 -6 -62 51 -21 34 -56 92 -75 128 l-37 67 278 158 c222 128 289 171 338
219 178 176 178 454 0 630 -49 48 -116 91 -338 219 l-278 158 37 67 c52 96
114 191 122 187 3 -1 132 -75 286 -164 191 -110 299 -166 340 -177 195 -50
398 33 502 207 58 96 63 136 63 499 l0 328 23 4 c36 7 212 8 246 1z m-589
-674 c-23 -45 -80 -80 -130 -80 -39 0 -45 3 -323 163 l-228 131 43 38 c170
150 348 256 563 333 l90 33 3 -289 c2 -274 1 -291 -18 -329z m1196 509 c121
-59 238 -135 344 -226 69 -59 77 -68 62 -78 -28 -20 -414 -241 -459 -264 -23
-11 -56 -21 -73 -21 -50 0 -107 35 -130 80 -19 37 -20 58 -20 329 l0 290 88
-30 c48 -17 132 -53 188 -80z m-2099 -1205 c120 -69 232 -136 250 -147 40 -27
73 -85 73 -127 0 -42 -33 -100 -73 -127 -18 -11 -131 -78 -251 -147 -156 -90
-222 -123 -227 -115 -26 43 -53 310 -46 459 7 139 37 330 52 330 2 0 101 -57
222 -126z m2978 107 c34 -108 53 -386 36 -536 -13 -121 -30 -217 -40 -234 -5
-8 -71 25 -227 115 -120 69 -234 136 -252 147 -40 26 -72 84 -72 129 0 37 32
95 64 118 28 21 469 278 478 279 4 1 9 -7 13 -18z m-2135 -1291 c26 -13 47
-34 60 -60 19 -37 20 -58 20 -329 l0 -290 -87 30 c-191 67 -378 174 -533 306
-69 59 -77 68 -62 78 24 17 409 238 457 263 51 27 95 27 145 2z m1193 4 c18
-9 134 -75 260 -147 l228 -131 -43 -38 c-171 -151 -357 -261 -573 -337 l-85
-30 0 290 c0 271 1 292 20 329 35 69 124 99 193 64z"
    />
    <path
      d="M2471 2999 c-227 -44 -391 -278 -353 -505 32 -196 180 -344 376 -376
289 -48 556 219 508 508 -42 255 -281 422 -531 373z m159 -309 c45 -23 80 -80
80 -130 0 -17 -9 -49 -20 -70 -23 -45 -80 -80 -130 -80 -50 0 -107 35 -130 80
-25 50 -25 90 0 140 37 73 124 99 200 60z"
    />
  </g>
</svg>
