<?xml version="1.0" standalone="no"?>
<!DOCTYPE svg PUBLIC "-//W3C//DTD SVG 20010904//EN" "http://www.w3.org/TR/2001/REC-SVG-20010904/DTD/svg10.dtd">
<svg
  version="1.0"
  xmlns="http://www.w3.org/2000/svg"
  width="512.000000pt"
  height="512.000000pt"
  viewBox="0 0 512.000000 512.000000"
  preserveAspectRatio="xMidYMid meet"
>
  <g
    transform="translate(0.000000,512.000000) scale(0.100000,-0.100000)"
    fill="#038E38"
    stroke="none"
  >
    <path
      d="M2510 4849 c-173 -113 -430 -237 -649 -313 -307 -107 -590 -161 -943
-182 l-118 -6 0 -907 c0 -924 4 -1039 40 -1246 20 -116 78 -337 104 -400 l16
-37 32 20 c18 11 97 56 176 102 99 57 142 87 138 96 -16 42 -58 214 -77 314
-21 110 -22 146 -26 876 l-4 761 23 26 c20 23 39 29 158 48 349 55 701 169
1029 334 72 36 140 65 151 65 11 0 82 -31 158 -69 320 -160 677 -275 1027
-331 113 -18 133 -24 153 -47 l23 -25 -4 -757 c-3 -723 -4 -761 -25 -877 -42
-233 -111 -438 -218 -643 -70 -136 -81 -126 172 -166 89 -14 167 -25 173 -25
16 0 96 172 149 315 46 126 104 352 129 505 15 93 17 217 20 1088 l4 982 -33
0 c-69 0 -317 21 -418 36 -429 62 -846 212 -1222 440 -49 30 -90 54 -91 53 -1
0 -22 -14 -47 -30z"
    />
    <path
      d="M2435 4169 c-288 -142 -662 -264 -968 -315 l-108 -19 4 -710 c4 -662
5 -717 24 -815 22 -112 59 -257 71 -278 6 -9 31 -7 107 7 176 34 323 44 564
38 297 -7 485 -40 711 -124 79 -29 333 -161 587 -305 l52 -29 71 143 c109 220
173 440 199 680 7 58 11 358 11 745 l0 649 -106 17 c-307 52 -656 166 -963
313 -74 35 -134 64 -135 63 -1 0 -55 -27 -121 -60z m888 -597 l117 -117 -563
-562 c-610 -609 -581 -585 -674 -568 -33 6 -73 41 -281 248 l-242 242 120 120
120 120 160 -160 160 -160 478 478 c262 262 479 477 482 477 3 0 58 -53 123
-118z"
    />
    <path
      d="M1840 1913 c-194 -13 -358 -46 -444 -90 -28 -14 -157 -87 -286 -162
l-235 -136 -195 -5 c-189 -5 -197 -6 -252 -33 -64 -31 -116 -88 -147 -158 -25
-57 -121 -438 -121 -482 0 -97 71 -196 178 -249 61 -31 75 -33 182 -36 l115
-4 11 70 c44 280 321 466 589 397 187 -49 329 -205 359 -396 l10 -69 916 0
916 0 10 69 c30 191 172 347 359 396 268 69 545 -117 589 -396 l10 -69 186 0
c102 0 202 5 224 11 75 21 146 119 146 202 0 14 -20 90 -45 169 -41 135 -47
145 -90 185 -25 23 -60 46 -79 53 -18 6 -278 48 -577 94 l-544 84 -385 210
c-318 174 -406 218 -506 252 -226 75 -404 101 -676 98 -95 -1 -193 -3 -218 -5z
m160 -329 l0 -176 -97 7 c-347 22 -771 60 -779 68 -6 6 353 204 398 219 76 26
263 51 421 56 l57 2 0 -176z m318 165 c257 -28 399 -77 705 -244 128 -70 235
-130 239 -134 4 -4 -54 -5 -130 -4 -262 6 -798 24 -884 30 l-88 6 0 178 0 179
30 0 c17 0 74 -5 128 -11z"
    />
    <path
      d="M1045 871 c-92 -24 -173 -90 -215 -176 -34 -69 -35 -198 -2 -265 34
-71 75 -114 144 -151 58 -31 70 -34 148 -33 72 0 93 4 136 26 75 40 107 70
145 140 31 58 34 70 34 148 0 78 -3 90 -34 148 -57 104 -144 160 -260 167 -36
2 -79 1 -96 -4z"
    />
    <path
      d="M3845 871 c-92 -24 -173 -90 -215 -176 -34 -69 -35 -198 -2 -265 34
-71 75 -114 144 -151 58 -31 70 -34 148 -33 72 0 93 4 136 26 75 40 107 70
145 140 31 58 34 70 34 148 0 78 -3 90 -34 148 -57 104 -144 160 -260 167 -36
2 -79 1 -96 -4z"
    />
  </g>
</svg>
