<?xml version="1.0" standalone="no"?>
<!DOCTYPE svg PUBLIC "-//W3C//DTD SVG 20010904//EN" "http://www.w3.org/TR/2001/REC-SVG-20010904/DTD/svg10.dtd">
<svg
  version="1.0"
  xmlns="http://www.w3.org/2000/svg"
  width="512.000000pt"
  height="512.000000pt"
  viewBox="0 0 512.000000 512.000000"
  preserveAspectRatio="xMidYMid meet"
>
  <g
    transform="translate(0.000000,512.000000) scale(0.100000,-0.100000)"
    fill="#F8B133"
    stroke="none"
  >
    <path
      d="M1585 4856 c-28 -7 -72 -23 -99 -35 -60 -29 -157 -118 -189 -174 -14
-23 -112 -251 -218 -507 l-194 -465 0 -110 c0 -91 4 -120 23 -167 33 -81 99
-167 164 -211 61 -42 650 -292 788 -334 76 -24 102 -26 240 -27 128 0 169 4
232 22 146 40 287 117 394 215 l55 50 341 -142 c236 -99 350 -141 371 -139 59
6 85 79 43 121 -8 8 -158 74 -333 146 -175 73 -320 134 -322 136 -2 2 8 24 22
48 38 65 84 186 100 263 10 49 19 68 28 66 8 -2 212 -86 454 -187 412 -172
440 -185 437 -207 -17 -140 -17 -135 24 -176 29 -28 73 -52 166 -90 69 -29
136 -52 148 -52 45 0 87 30 115 83 16 29 29 54 31 55 4 6 278 -110 308 -131
30 -21 65 -87 66 -123 0 -46 -33 -127 -67 -165 -46 -51 -84 -71 -137 -71 -45
0 -66 8 -470 176 -153 64 -287 116 -298 116 -82 0 -99 -107 -23 -143 19 -9
188 -80 376 -158 322 -133 345 -141 408 -141 115 0 216 55 284 154 50 72 69
130 70 213 3 123 -50 223 -147 280 -66 39 -333 145 -364 145 -58 0 -145 -64
-164 -121 -3 -8 -167 51 -187 67 -2 2 4 21 13 44 9 22 16 58 16 80 0 76 -7 80
-560 309 l-505 210 -7 59 c-23 207 -130 425 -275 563 -70 67 -121 103 -204
147 -94 50 -690 297 -749 311 -59 14 -142 12 -205 -3z m525 -284 c184 -77 354
-151 377 -164 350 -200 484 -647 304 -1013 -121 -245 -371 -408 -646 -423
-160 -8 -221 9 -610 170 -187 77 -358 153 -379 169 -50 37 -100 107 -116 163
-28 102 -18 136 179 610 100 242 191 456 201 476 19 38 81 99 122 121 51 27
105 39 168 35 57 -3 109 -22 400 -144z"
    />
    <path
      d="M1728 4354 c-31 -9 -67 -33 -103 -67 -54 -50 -60 -61 -152 -282 -90
-215 -96 -235 -97 -300 -1 -200 184 -337 379 -281 47 14 69 29 114 74 52 53
62 71 145 272 81 195 90 222 94 293 4 72 2 83 -28 143 -65 132 -208 192 -352
148z m145 -148 c18 -7 45 -28 60 -45 47 -56 40 -98 -58 -332 -47 -112 -95
-213 -107 -226 -45 -48 -130 -54 -187 -13 -36 25 -66 98 -57 136 12 46 165
408 184 434 22 29 77 60 110 60 12 0 37 -6 55 -14z"
    />
    <path
      d="M2220 2259 c-131 -14 -314 -51 -820 -165 -256 -58 -475 -107 -487
-110 -20 -5 -24 0 -34 41 -15 61 -78 129 -134 144 -25 7 -144 11 -310 11 -242
0 -274 -2 -310 -19 -53 -24 -83 -55 -106 -105 -17 -37 -19 -69 -19 -313 0
-149 3 -279 6 -288 10 -26 63 -45 93 -34 49 19 50 26 51 310 0 245 1 267 18
282 16 15 50 17 275 17 244 0 258 -1 277 -20 20 -20 20 -33 20 -663 0 -565 -2
-645 -16 -665 -15 -22 -18 -22 -278 -22 -242 0 -264 1 -279 18 -15 16 -17 48
-17 244 0 213 -1 227 -21 252 -28 36 -80 36 -108 0 -20 -25 -21 -39 -21 -264
l0 -238 28 -53 c22 -43 38 -59 81 -81 l53 -28 279 0 c309 0 325 3 387 63 20
19 39 52 48 83 l15 51 462 -117 c254 -65 651 -166 882 -226 l420 -108 155 1
c154 0 157 0 455 66 165 36 424 93 575 126 151 32 444 96 650 141 211 45 397
91 426 104 73 33 129 88 165 161 75 152 33 314 -99 388 -92 52 -113 50 -807
-57 -380 -59 -649 -96 -696 -96 -42 0 -134 11 -205 24 -221 42 -844 185 -874
201 -44 23 -64 58 -57 101 7 40 31 72 64 85 13 5 118 -2 265 -17 205 -21 254
-24 313 -14 137 22 224 81 277 188 30 60 33 76 33 152 0 76 -4 93 -33 152 -60
123 -164 194 -335 229 -333 67 -536 87 -707 68z m538 -190 c233 -43 293 -65
338 -124 104 -136 48 -294 -115 -325 -52 -10 -219 1 -459 31 -125 15 -194 -4
-258 -73 -53 -55 -68 -95 -68 -173 0 -103 48 -181 144 -230 33 -17 703 -170
919 -210 209 -39 236 -37 928 70 340 52 632 95 651 95 53 0 102 -28 119 -69
34 -82 -9 -180 -100 -225 -39 -20 -290 -78 -982 -228 l-930 -202 -135 0 -135
0 -495 127 c-637 163 -1280 327 -1286 327 -2 0 -4 217 -4 483 l0 483 548 122
c301 68 587 130 636 138 251 43 378 40 684 -17z"
    />
  </g>
</svg>
