<?xml version="1.0" encoding="UTF-8" standalone="no"?>
<svg
  xmlns:dc="http://purl.org/dc/elements/1.1/"
  xmlns:cc="http://creativecommons.org/ns#"
  xmlns:rdf="http://www.w3.org/1999/02/22-rdf-syntax-ns#"
  xmlns:svg="http://www.w3.org/2000/svg"
  xmlns="http://www.w3.org/2000/svg"
  viewBox="0 0 128 128"
  height="128"
  width="128"
  xml:space="preserve"
  id="svg2"
  version="1.1"
>
  <metadata id="metadata8">
    <rdf:RDF>
      <cc:Work rdf:about="">
        <dc:format>image/svg+xml</dc:format>
        <dc:type rdf:resource="http://purl.org/dc/dcmitype/StillImage" />
      </cc:Work>
    </rdf:RDF>
  </metadata>
  <defs id="defs6">
    <clipPath id="clipPath24" clipPathUnits="userSpaceOnUse">
      <path id="path22" d="M 0,128 H 128 V 0 H 0 Z" />
    </clipPath>
  </defs>
  <g transform="scale(0.15, -0.15) translate(400, 1000)" id="g10">
    <g id="g18">
      <g clip-path="url(#clipPath24)" id="g20">
        <g transform="translate(367.0985,38.7829)" id="g112">
          <path
            id="path114"
            style="
              fill: #00c2cb;
              fill-opacity: 1;
              fill-rule: nonzero;
              stroke: none;
            "
            d="m 0,0 h -114.235 l 20.66,72.848 h 72.915 z"
          />
        </g>
        <g transform="translate(580.5197,38.7829)" id="g116">
          <path
            id="path118"
            style="
              fill: #00c2cb;
              fill-opacity: 1;
              fill-rule: nonzero;
              stroke: none;
            "
            d="m 0,0 h -109.769 c -9.049,0 -17.003,4.819 -21.384,12.049 -0.203,0.353 -90.947,155.385 -90.947,155.385 h 30.855 z"
          />
        </g>
        <g transform="translate(337.8615,141.8285)" id="g120">
          <path
            id="path122"
            style="
              fill: #00c2cb;
              fill-opacity: 1;
              fill-rule: nonzero;
              stroke: none;
            "
            d="m 0,0 h -55.761 l 18.267,64.389 h 19.227 z"
          />
        </g>
        <g transform="translate(261.5253,206.2171)" id="g124">
          <path
            id="path126"
            style="
              fill: #00c2cb;
              fill-opacity: 1;
              fill-rule: nonzero;
              stroke: none;
            "
            d="m 0,0 c 0,0 -90.778,-155.133 -91.031,-155.554 -4.415,-7.128 -12.301,-11.88 -21.299,-11.88 H -222.1 L -30.838,0 Z"
          />
        </g>
      </g>
    </g>
  </g>
</svg>
